<?xml version="1.0" encoding="UTF-8" standalone="no"?>
<!-- Created with Inkscape (http://www.inkscape.org/) -->
<svg
   xmlns:dc="http://purl.org/dc/elements/1.1/"
   xmlns:cc="http://creativecommons.org/ns#"
   xmlns:rdf="http://www.w3.org/1999/02/22-rdf-syntax-ns#"
   xmlns:svg="http://www.w3.org/2000/svg"
   xmlns="http://www.w3.org/2000/svg"
   xmlns:sodipodi="http://sodipodi.sourceforge.net/DTD/sodipodi-0.dtd"
   xmlns:inkscape="http://www.inkscape.org/namespaces/inkscape"
   id="svg2"
   sodipodi:version="0.32"
   inkscape:version="0.46"
   width="1000"
   height="450"
   xml:space="preserve"
   sodipodi:docname="april_logo_for-big-prints_RGB_transparent.svg"
   inkscape:output_extension="org.inkscape.output.svg.inkscape"
   version="1.0"
   inkscape:export-filename="/home/lionel/April/Comm/Nouveau_Logo/Logos/april_logo_for-big-prints_RGB_transparent.png"
   inkscape:export-xdpi="90"
   inkscape:export-ydpi="90"><metadata
     id="metadata7"><rdf:RDF><cc:Work
         rdf:about=""><dc:format>image/svg+xml</dc:format><dc:type
           rdf:resource="http://purl.org/dc/dcmitype/StillImage" /></cc:Work></rdf:RDF></metadata><defs
     id="defs5"><inkscape:perspective
       sodipodi:type="inkscape:persp3d"
       inkscape:vp_x="0 : 526.18109 : 1"
       inkscape:vp_y="0 : 1000 : 0"
       inkscape:vp_z="744.09448 : 526.18109 : 1"
       inkscape:persp3d-origin="372.04724 : 350.78739 : 1"
       id="perspective9" /><clipPath
       clipPathUnits="userSpaceOnUse"
       id="clipPath17"><path
         d="M 0,800 L 800,800 L 800,0 L 0,0 L 0,800 z"
         id="path19" /></clipPath></defs><sodipodi:namedview
     inkscape:window-height="988"
     inkscape:window-width="1680"
     inkscape:pageshadow="2"
     inkscape:pageopacity="0"
     guidetolerance="10.0"
     gridtolerance="10.0"
     objecttolerance="10.0"
     borderopacity="1.0"
     bordercolor="#666666"
     pagecolor="#ffffff"
     id="base"
     showgrid="false"
     inkscape:zoom="0.466"
     inkscape:cx="128.75536"
     inkscape:cy="500"
     inkscape:window-x="-3"
     inkscape:window-y="-3"
     inkscape:current-layer="g11"
     height="600px"
     borderlayer="true"
     inkscape:showpageshadow="false" /><g
     id="g11"
     inkscape:groupmode="layer"
     inkscape:label="april_logo_for-big-prints_RGB"
     transform="matrix(1.25,0,0,-1.25,0,1000)"><g
       id="g13"
       transform="matrix(1.7603536,0,0,1.7603536,-368.50999,-74.754354)"><g
         id="g15"
         clip-path="url(#clipPath17)"><path
           d="M 407.588,350.217 C 407.588,348.879 407.922,347.809 408.592,347.008 C 409.262,346.207 410.143,345.807 411.236,345.807 C 412.356,345.807 413.224,346.18 413.839,346.926 C 414.453,347.673 414.762,348.732 414.762,350.107 C 414.762,351.473 414.439,352.54 413.798,353.309 C 413.155,354.078 412.274,354.463 411.154,354.463 C 410.033,354.463 409.158,354.09 408.53,353.344 C 407.901,352.597 407.588,351.555 407.588,350.217 M 404.715,337.604 L 404.715,356.666 L 407.684,356.666 L 407.684,354.531 C 408.029,355.353 408.583,355.986 409.345,356.434 C 410.105,356.88 411.015,357.104 412.072,357.104 C 413.795,357.104 415.192,356.468 416.264,355.197 C 417.335,353.927 417.871,352.258 417.871,350.189 C 417.871,348.012 417.344,346.297 416.291,345.045 C 415.238,343.792 413.796,343.166 411.963,343.166 C 411.052,343.166 410.242,343.349 409.536,343.713 C 408.829,344.078 408.212,344.635 407.684,345.383 L 407.684,337.604 L 404.715,337.604 z"
           style="fill:#005184;fill-opacity:1;fill-rule:nonzero;stroke:none"
           id="path21" /><path
           d="M 421.516,354.58 C 421.835,355.439 422.256,356.075 422.779,356.486 C 423.303,356.897 423.951,357.104 424.726,357.104 C 425.145,357.104 425.557,357.054 425.962,356.953 C 426.367,356.854 426.766,356.708 427.156,356.517 L 426.092,353.993 C 425.837,354.175 425.561,354.309 425.266,354.396 C 424.969,354.482 424.639,354.525 424.275,354.525 C 423.292,354.525 422.586,354.132 422.158,353.344 C 421.73,352.557 421.516,351.234 421.516,349.378 L 421.516,343.697 L 418.547,343.697 L 418.547,356.682 L 421.516,356.682 L 421.516,354.58 z"
           style="fill:#005184;fill-opacity:1;fill-rule:nonzero;stroke:none"
           id="path23" /><path
           d="M 436.595,350.135 C 436.595,351.335 436.206,352.352 435.43,353.184 C 434.653,354.016 433.703,354.432 432.579,354.432 C 431.465,354.432 430.517,354.016 429.735,353.184 C 428.954,352.352 428.563,351.335 428.563,350.135 C 428.563,348.935 428.954,347.918 429.735,347.086 C 430.517,346.254 431.465,345.838 432.579,345.838 C 433.693,345.838 434.642,346.254 435.423,347.086 C 436.204,347.918 436.595,348.935 436.595,350.135 M 425.438,350.162 C 425.438,351.109 425.618,352.004 425.979,352.848 C 426.339,353.689 426.856,354.439 427.531,355.095 C 428.197,355.741 428.963,356.238 429.83,356.584 C 430.695,356.931 431.604,357.104 432.552,357.104 C 433.527,357.104 434.446,356.931 435.309,356.584 C 436.17,356.238 436.942,355.728 437.627,355.054 C 438.311,354.389 438.83,353.637 439.187,352.799 C 439.542,351.961 439.72,351.082 439.72,350.162 C 439.72,349.205 439.544,348.309 439.193,347.471 C 438.842,346.632 438.329,345.89 437.654,345.243 C 436.942,344.56 436.154,344.043 435.287,343.692 C 434.421,343.342 433.51,343.166 432.552,343.166 C 431.612,343.166 430.709,343.342 429.844,343.692 C 428.977,344.043 428.206,344.551 427.531,345.216 C 426.848,345.89 426.327,346.646 425.972,347.484 C 425.616,348.322 425.438,349.215 425.438,350.162"
           style="fill:#005184;fill-opacity:1;fill-rule:nonzero;stroke:none"
           id="path25" /><path
           d="M 443.357,343.697 L 440.389,343.697 L 440.389,356.666 L 443.18,356.666 L 443.18,354.537 C 443.771,355.439 444.443,356.098 445.195,356.513 C 445.946,356.928 446.832,357.135 447.852,357.135 C 448.863,357.135 449.701,356.923 450.366,356.499 C 451.031,356.075 451.536,355.43 451.883,354.564 C 452.565,355.457 453.293,356.109 454.063,356.52 C 454.832,356.93 455.71,357.135 456.694,357.135 C 457.551,357.135 458.298,356.978 458.936,356.663 C 459.574,356.349 460.07,355.891 460.426,355.289 C 460.59,355.007 460.711,354.67 460.788,354.277 C 460.865,353.886 460.904,353.325 460.904,352.596 L 460.904,351.557 L 460.904,343.697 L 457.936,343.697 L 457.936,350.354 C 457.936,352.095 457.751,353.24 457.382,353.792 C 457.014,354.344 456.355,354.619 455.408,354.619 C 454.242,354.619 453.411,354.248 452.914,353.505 C 452.418,352.763 452.17,351.461 452.17,349.603 L 452.17,343.697 L 449.17,343.697 L 449.17,350.354 C 449.17,351.958 448.977,353.07 448.59,353.689 C 448.203,354.309 447.537,354.619 446.591,354.619 C 446.009,354.619 445.477,354.486 444.994,354.223 C 444.513,353.959 444.131,353.594 443.849,353.129 C 443.666,352.828 443.539,352.459 443.467,352.021 C 443.394,351.584 443.357,350.778 443.357,349.603 L 443.357,343.697 z"
           style="fill:#005184;fill-opacity:1;fill-rule:nonzero;stroke:none"
           id="path27" /><path
           d="M 472.628,350.135 C 472.628,351.335 472.239,352.352 471.463,353.184 C 470.687,354.016 469.736,354.432 468.612,354.432 C 467.498,354.432 466.55,354.016 465.769,353.184 C 464.987,352.352 464.597,351.335 464.597,350.135 C 464.597,348.935 464.987,347.918 465.769,347.086 C 466.55,346.254 467.498,345.838 468.612,345.838 C 469.727,345.838 470.675,346.254 471.456,347.086 C 472.237,347.918 472.628,348.935 472.628,350.135 M 461.472,350.162 C 461.472,351.109 461.651,352.004 462.012,352.848 C 462.372,353.689 462.89,354.439 463.564,355.095 C 464.23,355.741 464.996,356.238 465.863,356.584 C 466.729,356.931 467.637,357.104 468.585,357.104 C 469.561,357.104 470.479,356.931 471.342,356.584 C 472.203,356.238 472.976,355.728 473.66,355.054 C 474.344,354.389 474.863,353.637 475.22,352.799 C 475.575,351.961 475.753,351.082 475.753,350.162 C 475.753,349.205 475.577,348.309 475.227,347.471 C 474.875,346.632 474.362,345.89 473.688,345.243 C 472.976,344.56 472.188,344.043 471.32,343.692 C 470.454,343.342 469.543,343.166 468.585,343.166 C 467.646,343.166 466.742,343.342 465.877,343.692 C 465.01,344.043 464.239,344.551 463.564,345.216 C 462.881,345.89 462.36,346.646 462.005,347.484 C 461.649,348.322 461.472,349.215 461.472,350.162"
           style="fill:#005184;fill-opacity:1;fill-rule:nonzero;stroke:none"
           id="path29" /><path
           d="M 479.297,356.666 L 479.297,349.365 C 479.297,348.107 479.557,347.205 480.075,346.658 C 480.594,346.111 481.436,345.838 482.602,345.838 C 483.767,345.838 484.609,346.111 485.128,346.658 C 485.646,347.205 485.906,348.107 485.906,349.365 L 485.906,356.666 L 488.875,356.666 L 488.875,350.254 C 488.875,347.772 488.379,345.971 487.385,344.849 C 486.393,343.727 484.807,343.166 482.629,343.166 C 480.414,343.166 478.811,343.723 477.818,344.835 C 476.824,345.948 476.328,347.754 476.328,350.254 L 476.328,356.666 L 479.297,356.666 z"
           style="fill:#005184;fill-opacity:1;fill-rule:nonzero;stroke:none"
           id="path31" /><path
           d="M 494.98,342.916 L 488.184,356.666 L 491.423,356.666 L 494.255,350.141 C 494.346,349.939 494.455,349.639 494.583,349.237 C 494.711,348.836 494.843,348.357 494.98,347.801 C 495.071,348.193 495.178,348.583 495.301,348.971 C 495.424,349.358 495.572,349.748 495.746,350.141 L 498.564,356.666 L 501.793,356.666 L 494.98,342.916 z"
           style="fill:#005184;fill-opacity:1;fill-rule:nonzero;stroke:none"
           id="path33" /><path
           d="M 511.379,350.135 C 511.379,351.335 510.99,352.352 510.213,353.184 C 509.437,354.016 508.486,354.432 507.363,354.432 C 506.248,354.432 505.3,354.016 504.519,353.184 C 503.737,352.352 503.348,351.335 503.348,350.135 C 503.348,348.935 503.737,347.918 504.519,347.086 C 505.3,346.254 506.248,345.838 507.363,345.838 C 508.478,345.838 509.426,346.254 510.207,347.086 C 510.988,347.918 511.379,348.935 511.379,350.135 M 500.223,350.162 C 500.223,351.109 500.402,352.004 500.763,352.848 C 501.123,353.689 501.641,354.439 502.315,355.095 C 502.98,355.741 503.747,356.238 504.613,356.584 C 505.479,356.931 506.387,357.104 507.336,357.104 C 508.311,357.104 509.23,356.931 510.092,356.584 C 510.953,356.238 511.727,355.728 512.41,355.054 C 513.095,354.389 513.614,353.637 513.97,352.799 C 514.325,351.961 514.504,351.082 514.504,350.162 C 514.504,349.205 514.328,348.309 513.977,347.471 C 513.626,346.632 513.112,345.89 512.438,345.243 C 511.727,344.56 510.938,344.043 510.071,343.692 C 509.205,343.342 508.293,343.166 507.336,343.166 C 506.396,343.166 505.493,343.342 504.627,343.692 C 503.761,344.043 502.99,344.551 502.315,345.216 C 501.631,345.89 501.111,346.646 500.756,347.484 C 500.4,348.322 500.223,349.215 500.223,350.162"
           style="fill:#005184;fill-opacity:1;fill-rule:nonzero;stroke:none"
           id="path35" /><path
           d="M 515.313,356.666 L 518.282,356.666 L 518.282,343.697 L 515.313,343.697 L 515.313,356.666 z M 514.922,362.273 C 514.922,362.774 515.107,363.207 515.477,363.572 C 515.846,363.937 516.285,364.119 516.795,364.119 C 517.324,364.119 517.764,363.943 518.115,363.593 C 518.466,363.242 518.641,362.802 518.641,362.273 C 518.641,361.744 518.463,361.301 518.107,360.94 C 517.752,360.58 517.314,360.4 516.795,360.4 C 516.285,360.4 515.846,360.585 515.477,360.954 C 515.107,361.323 514.922,361.763 514.922,362.273"
           style="fill:#005184;fill-opacity:1;fill-rule:nonzero;stroke:none"
           id="path37" /><path
           d="M 523.02,354.58 C 523.338,355.439 523.76,356.075 524.283,356.486 C 524.807,356.897 525.455,357.104 526.229,357.104 C 526.648,357.104 527.06,357.054 527.465,356.953 C 527.87,356.854 528.269,356.708 528.66,356.517 L 527.595,353.993 C 527.34,354.175 527.064,354.309 526.769,354.396 C 526.473,354.482 526.143,354.525 525.778,354.525 C 524.795,354.525 524.09,354.132 523.661,353.344 C 523.233,352.557 523.02,351.234 523.02,349.378 L 523.02,343.697 L 520.051,343.697 L 520.051,356.682 L 523.02,356.682 L 523.02,354.58 z"
           style="fill:#005184;fill-opacity:1;fill-rule:nonzero;stroke:none"
           id="path39" /><path
           d="M 543.287,351.729 C 543.168,352.658 542.813,353.368 542.221,353.855 C 541.629,354.344 540.818,354.588 539.789,354.588 C 538.814,354.588 538.031,354.351 537.439,353.877 C 536.848,353.402 536.434,352.686 536.196,351.729 L 543.287,351.729 z M 546.365,349.729 L 536.006,349.729 C 536.078,348.52 536.438,347.577 537.085,346.9 C 537.731,346.223 538.592,345.885 539.667,345.885 C 540.623,345.885 541.42,346.084 542.058,346.483 C 542.695,346.883 543.25,347.527 543.725,348.416 L 546.225,347.027 C 545.495,345.727 544.594,344.758 543.519,344.121 C 542.443,343.484 541.182,343.166 539.732,343.166 C 537.655,343.166 536.002,343.799 534.771,345.065 C 533.542,346.331 532.928,348.021 532.928,350.135 C 532.928,352.166 533.563,353.836 534.834,355.143 C 536.105,356.449 537.739,357.104 539.734,357.104 C 541.822,357.104 543.448,356.506 544.615,355.311 C 545.781,354.116 546.365,352.442 546.365,350.29 L 546.365,349.729 z"
           style="fill:#005184;fill-opacity:1;fill-rule:nonzero;stroke:none"
           id="path41" /><path
           d="M 547.691,343.697 L 547.691,354.072 L 545.426,354.072 L 545.426,356.666 L 547.691,356.666 L 547.691,361.572 L 550.66,361.572 L 550.66,356.666 L 552.926,356.666 L 552.926,354.072 L 550.66,354.072 L 550.66,343.697 L 547.691,343.697 z"
           style="fill:#005184;fill-opacity:1;fill-rule:nonzero;stroke:none"
           id="path43" /><path
           d="M 568.316,350.217 C 568.316,351.555 568.004,352.597 567.381,353.344 C 566.756,354.09 565.884,354.463 564.764,354.463 C 563.643,354.463 562.762,354.078 562.119,353.309 C 561.478,352.54 561.156,351.473 561.156,350.107 C 561.156,348.732 561.466,347.673 562.086,346.926 C 562.705,346.18 563.579,345.807 564.709,345.807 C 565.783,345.807 566.654,346.209 567.318,347.015 C 567.984,347.82 568.316,348.888 568.316,350.217 M 568.234,364.885 L 571.203,364.885 L 571.203,343.697 L 568.234,343.697 L 568.234,345.382 C 567.705,344.634 567.088,344.078 566.381,343.713 C 565.675,343.349 564.866,343.166 563.954,343.166 C 562.122,343.166 560.679,343.792 559.626,345.045 C 558.573,346.297 558.047,348.012 558.047,350.189 C 558.047,352.258 558.585,353.927 559.66,355.197 C 560.736,356.468 562.141,357.104 563.872,357.104 C 564.93,357.104 565.834,356.883 566.587,356.439 C 567.339,355.998 567.888,355.361 568.234,354.531 L 568.234,364.885 z"
           style="fill:#005184;fill-opacity:1;fill-rule:nonzero;stroke:none"
           id="path45" /><path
           d="M 576.771,358.635 L 579.367,362.354 L 582.442,362.354 L 578.451,358.635 L 576.771,358.635 z M 582.239,351.729 C 582.121,352.658 581.766,353.368 581.174,353.855 C 580.582,354.344 579.771,354.588 578.742,354.588 C 577.768,354.588 576.984,354.351 576.393,353.877 C 575.801,353.402 575.386,352.686 575.149,351.729 L 582.239,351.729 z M 585.317,349.729 L 574.958,349.729 C 575.031,348.52 575.391,347.577 576.037,346.9 C 576.684,346.223 577.545,345.885 578.619,345.885 C 579.575,345.885 580.372,346.084 581.01,346.483 C 581.647,346.883 582.203,347.527 582.677,348.416 L 585.177,347.027 C 584.447,345.727 583.546,344.758 582.471,344.121 C 581.396,343.484 580.134,343.166 578.686,343.166 C 576.608,343.166 574.955,343.799 573.725,345.065 C 572.494,346.331 571.88,348.021 571.88,350.135 C 571.88,352.166 572.516,353.836 573.787,355.143 C 575.059,356.449 576.691,357.104 578.688,357.104 C 580.774,357.104 582.401,356.506 583.567,355.311 C 584.734,354.116 585.317,352.442 585.317,350.29 L 585.317,349.729 z"
           style="fill:#005184;fill-opacity:1;fill-rule:nonzero;stroke:none"
           id="path47" /><path
           d="M 586.363,343.697 L 586.363,354.072 L 584.086,354.072 L 584.086,356.666 L 586.363,356.666 L 586.363,360.134 C 586.363,361.857 586.722,363.13 587.438,363.95 C 588.154,364.771 589.266,365.182 590.772,365.182 C 591.092,365.182 591.42,365.158 591.758,365.113 C 592.096,365.067 592.438,364.994 592.785,364.894 L 592.785,362.209 C 592.548,362.346 592.308,362.448 592.065,362.517 C 591.823,362.585 591.579,362.619 591.333,362.619 C 590.62,362.619 590.108,362.4 589.798,361.964 C 589.487,361.526 589.332,360.789 589.332,359.752 L 589.332,356.666 L 592.456,356.666 L 592.456,354.072 L 589.332,354.072 L 589.332,343.697 L 586.363,343.697 z"
           style="fill:#005184;fill-opacity:1;fill-rule:nonzero;stroke:none"
           id="path49" /><path
           d="M 601.456,351.729 C 601.338,352.658 600.982,353.368 600.391,353.855 C 599.799,354.344 598.988,354.588 597.959,354.588 C 596.984,354.588 596.201,354.351 595.609,353.877 C 595.018,353.402 594.603,352.686 594.366,351.729 L 601.456,351.729 z M 604.534,349.729 L 594.175,349.729 C 594.248,348.52 594.607,347.577 595.254,346.9 C 595.9,346.223 596.762,345.885 597.836,345.885 C 598.792,345.885 599.589,346.084 600.227,346.483 C 600.864,346.883 601.42,347.527 601.894,348.416 L 604.394,347.027 C 603.664,345.727 602.763,344.758 601.688,344.121 C 600.612,343.484 599.351,343.166 597.902,343.166 C 595.825,343.166 594.172,343.799 592.941,345.065 C 591.711,346.331 591.097,348.021 591.097,350.135 C 591.097,352.166 591.732,353.836 593.004,355.143 C 594.275,356.449 595.908,357.104 597.904,357.104 C 599.991,357.104 601.618,356.506 602.784,355.311 C 603.951,354.116 604.534,352.442 604.534,350.29 L 604.534,349.729 z"
           style="fill:#005184;fill-opacity:1;fill-rule:nonzero;stroke:none"
           id="path51" /><path
           d="M 605.158,343.697 L 605.158,356.666 L 607.949,356.666 L 607.949,354.533 C 608.542,355.426 609.239,356.078 610.042,356.488 C 610.844,356.898 611.82,357.104 612.969,357.104 C 613.936,357.104 614.758,356.951 615.438,356.646 C 616.117,356.34 616.648,355.887 617.031,355.285 C 617.259,354.93 617.423,354.516 617.523,354.042 C 617.623,353.568 617.674,352.739 617.674,351.555 L 617.674,343.697 L 614.674,343.697 L 614.674,350.352 C 614.674,352.056 614.467,353.188 614.052,353.748 C 613.638,354.308 612.901,354.588 611.845,354.588 C 611.152,354.588 610.535,354.46 609.992,354.205 C 609.45,353.95 609.024,353.59 608.715,353.126 C 608.496,352.816 608.344,352.417 608.257,351.93 C 608.17,351.442 608.127,350.666 608.127,349.601 L 608.127,343.697 L 605.158,343.697 z"
           style="fill:#005184;fill-opacity:1;fill-rule:nonzero;stroke:none"
           id="path53" /><path
           d="M 628.471,350.217 C 628.471,351.555 628.158,352.597 627.535,353.344 C 626.91,354.09 626.038,354.463 624.918,354.463 C 623.797,354.463 622.916,354.078 622.273,353.309 C 621.632,352.54 621.311,351.473 621.311,350.107 C 621.311,348.732 621.62,347.673 622.24,346.926 C 622.859,346.18 623.733,345.807 624.863,345.807 C 625.938,345.807 626.809,346.209 627.473,347.015 C 628.139,347.82 628.471,348.888 628.471,350.217 M 628.389,364.885 L 631.357,364.885 L 631.357,343.697 L 628.389,343.697 L 628.389,345.382 C 627.859,344.634 627.242,344.078 626.535,343.713 C 625.829,343.349 625.021,343.166 624.108,343.166 C 622.276,343.166 620.833,343.792 619.78,345.045 C 618.728,346.297 618.201,348.012 618.201,350.189 C 618.201,352.258 618.739,353.927 619.814,355.197 C 620.891,356.468 622.295,357.104 624.026,357.104 C 625.084,357.104 625.988,356.883 626.741,356.439 C 627.493,355.998 628.042,355.361 628.389,354.531 L 628.389,364.885 z"
           style="fill:#005184;fill-opacity:1;fill-rule:nonzero;stroke:none"
           id="path55" /><path
           d="M 635.956,354.58 C 636.274,355.439 636.695,356.075 637.219,356.486 C 637.742,356.897 638.392,357.104 639.166,357.104 C 639.584,357.104 639.996,357.054 640.401,356.953 C 640.807,356.854 641.205,356.708 641.597,356.517 L 640.531,353.993 C 640.276,354.175 640.001,354.309 639.705,354.396 C 639.409,354.482 639.079,354.525 638.715,354.525 C 637.731,354.525 637.025,354.132 636.598,353.344 C 636.17,352.557 635.956,351.234 635.956,349.378 L 635.956,343.697 L 632.987,343.697 L 632.987,356.682 L 635.956,356.682 L 635.956,354.58 z"
           style="fill:#005184;fill-opacity:1;fill-rule:nonzero;stroke:none"
           id="path57" /><path
           d="M 650.238,351.729 C 650.12,352.658 649.765,353.368 649.173,353.855 C 648.58,354.344 647.77,354.588 646.741,354.588 C 645.767,354.588 644.983,354.351 644.392,353.877 C 643.799,353.402 643.385,352.686 643.148,351.729 L 650.238,351.729 z M 653.316,349.729 L 642.957,349.729 C 643.029,348.52 643.39,347.577 644.036,346.9 C 644.683,346.223 645.544,345.885 646.618,345.885 C 647.574,345.885 648.371,346.084 649.009,346.483 C 649.646,346.883 650.202,347.527 650.676,348.416 L 653.176,347.027 C 652.447,345.727 651.545,344.758 650.47,344.121 C 649.395,343.484 648.133,343.166 646.685,343.166 C 644.607,343.166 642.953,343.799 641.724,345.065 C 640.494,346.331 639.879,348.021 639.879,350.135 C 639.879,352.166 640.515,353.836 641.786,355.143 C 643.057,356.449 644.69,357.104 646.687,357.104 C 648.773,357.104 650.4,356.506 651.566,355.311 C 652.733,354.116 653.316,352.442 653.316,350.29 L 653.316,349.729 z"
           style="fill:#005184;fill-opacity:1;fill-rule:nonzero;stroke:none"
           id="path59" /><path
           d="M 404.855,334.885 L 407.824,334.885 L 407.824,313.697 L 404.855,313.697 L 404.855,334.885 z"
           style="fill:#005184;fill-opacity:1;fill-rule:nonzero;stroke:none"
           id="path61" /><path
           d="M 418.998,321.729 C 418.88,322.658 418.525,323.368 417.933,323.855 C 417.341,324.344 416.53,324.588 415.501,324.588 C 414.526,324.588 413.743,324.351 413.151,323.877 C 412.56,323.402 412.146,322.686 411.908,321.729 L 418.998,321.729 z M 422.076,319.729 L 411.717,319.729 C 411.79,318.52 412.15,317.577 412.797,316.9 C 413.443,316.223 414.304,315.885 415.379,315.885 C 416.335,315.885 417.132,316.084 417.77,316.483 C 418.406,316.883 418.963,317.527 419.436,318.416 L 421.936,317.027 C 421.207,315.727 420.305,314.758 419.23,314.121 C 418.155,313.484 416.894,313.166 415.445,313.166 C 413.367,313.166 411.714,313.799 410.484,315.065 C 409.254,316.331 408.639,318.021 408.639,320.135 C 408.639,322.166 409.274,323.836 410.546,325.143 C 411.817,326.449 413.451,327.104 415.447,327.104 C 417.533,327.104 419.16,326.506 420.327,325.311 C 421.493,324.116 422.076,322.442 422.076,320.29 L 422.076,319.729 z"
           style="fill:#005184;fill-opacity:1;fill-rule:nonzero;stroke:none"
           id="path63" /><path
           d="M 428.826,334.885 L 431.795,334.885 L 431.795,313.697 L 428.826,313.697 L 428.826,334.885 z"
           style="fill:#005184;fill-opacity:1;fill-rule:nonzero;stroke:none"
           id="path65" /><path
           d="M 443.767,320.135 C 443.767,321.335 443.378,322.352 442.602,323.184 C 441.825,324.016 440.875,324.432 439.751,324.432 C 438.637,324.432 437.688,324.016 436.907,323.184 C 436.126,322.352 435.735,321.335 435.735,320.135 C 435.735,318.935 436.126,317.918 436.907,317.086 C 437.688,316.254 438.637,315.838 439.751,315.838 C 440.865,315.838 441.813,316.254 442.595,317.086 C 443.376,317.918 443.767,318.935 443.767,320.135 M 432.61,320.162 C 432.61,321.109 432.79,322.004 433.15,322.848 C 433.511,323.689 434.028,324.439 434.703,325.095 C 435.369,325.741 436.135,326.238 437.002,326.584 C 437.867,326.931 438.775,327.104 439.724,327.104 C 440.699,327.104 441.618,326.931 442.48,326.584 C 443.342,326.238 444.114,325.728 444.799,325.054 C 445.482,324.389 446.002,323.637 446.358,322.799 C 446.714,321.961 446.892,321.082 446.892,320.162 C 446.892,319.205 446.716,318.309 446.365,317.471 C 446.014,316.632 445.501,315.89 444.826,315.243 C 444.114,314.56 443.326,314.043 442.459,313.692 C 441.593,313.342 440.682,313.166 439.724,313.166 C 438.784,313.166 437.881,313.342 437.016,313.692 C 436.148,314.043 435.378,314.551 434.703,315.216 C 434.02,315.89 433.499,316.646 433.144,317.484 C 432.788,318.322 432.61,319.215 432.61,320.162"
           style="fill:#005184;fill-opacity:1;fill-rule:nonzero;stroke:none"
           id="path67" /><path
           d="M 456.877,320.217 C 456.877,321.555 456.564,322.597 455.941,323.344 C 455.316,324.09 454.444,324.463 453.324,324.463 C 452.203,324.463 451.322,324.078 450.68,323.309 C 450.038,322.54 449.717,321.473 449.717,320.107 C 449.717,318.732 450.026,317.673 450.646,316.926 C 451.266,316.18 452.14,315.807 453.27,315.807 C 454.335,315.807 455.203,316.212 455.873,317.021 C 456.542,317.832 456.877,318.896 456.877,320.217 M 459.764,314.507 C 459.764,311.974 459.258,310.189 458.246,309.155 C 457.233,308.121 455.529,307.604 453.131,307.604 C 451.345,307.604 449.918,307.979 448.852,308.73 C 447.784,309.481 447.242,310.48 447.224,311.729 L 450.414,311.742 C 450.459,311.188 450.719,310.767 451.192,310.477 C 451.666,310.187 452.331,310.041 453.188,310.041 C 454.453,310.041 455.365,310.318 455.92,310.873 C 456.477,311.429 456.758,312.357 456.768,313.658 L 456.795,315.383 C 456.266,314.635 455.648,314.078 454.941,313.713 C 454.235,313.349 453.427,313.166 452.515,313.166 C 450.683,313.166 449.239,313.792 448.187,315.045 C 447.134,316.297 446.607,318.012 446.607,320.189 C 446.607,322.258 447.146,323.927 448.221,325.197 C 449.297,326.468 450.701,327.104 452.433,327.104 C 453.49,327.104 454.395,326.883 455.147,326.439 C 455.899,325.998 456.448,325.361 456.795,324.531 L 456.795,326.666 L 459.764,326.666 L 459.764,314.507 z"
           style="fill:#005184;fill-opacity:1;fill-rule:nonzero;stroke:none"
           id="path69" /><path
           d="M 461.533,326.666 L 464.502,326.666 L 464.502,313.697 L 461.533,313.697 L 461.533,326.666 z M 461.143,332.273 C 461.143,332.774 461.328,333.207 461.697,333.572 C 462.066,333.937 462.506,334.119 463.016,334.119 C 463.545,334.119 463.984,333.943 464.336,333.593 C 464.687,333.242 464.861,332.802 464.861,332.273 C 464.861,331.744 464.684,331.301 464.328,330.94 C 463.973,330.58 463.535,330.4 463.016,330.4 C 462.506,330.4 462.066,330.585 461.697,330.954 C 461.328,331.323 461.143,331.763 461.143,332.273"
           style="fill:#005184;fill-opacity:1;fill-rule:nonzero;stroke:none"
           id="path71" /><path
           d="M 475.959,322.963 C 475.502,323.465 474.972,323.848 474.365,324.113 C 473.759,324.377 473.104,324.51 472.402,324.51 C 471.19,324.51 470.219,324.118 469.49,323.334 C 468.761,322.551 468.396,321.512 468.396,320.218 C 468.396,318.869 468.763,317.81 469.497,317.04 C 470.23,316.27 471.245,315.885 472.539,315.885 C 473.26,315.885 473.902,316.02 474.468,316.287 C 475.033,316.557 475.529,316.963 475.959,317.51 L 475.959,314.104 C 475.411,313.791 474.825,313.557 474.201,313.4 C 473.576,313.244 472.913,313.166 472.211,313.166 C 470.178,313.166 468.521,313.813 467.239,315.106 C 465.958,316.399 465.318,318.076 465.318,320.135 C 465.318,322.221 465.981,323.904 467.308,325.184 C 468.635,326.463 470.369,327.104 472.512,327.104 C 473.187,327.104 473.807,327.037 474.372,326.904 C 474.938,326.771 475.466,326.566 475.959,326.291 L 475.959,322.963 z"
           style="fill:#005184;fill-opacity:1;fill-rule:nonzero;stroke:none"
           id="path73" /><path
           d="M 476.662,326.666 L 479.631,326.666 L 479.631,313.697 L 476.662,313.697 L 476.662,326.666 z M 476.271,332.273 C 476.271,332.774 476.457,333.207 476.826,333.572 C 477.195,333.937 477.635,334.119 478.145,334.119 C 478.674,334.119 479.113,333.943 479.465,333.593 C 479.815,333.242 479.99,332.802 479.99,332.273 C 479.99,331.744 479.813,331.301 479.457,330.94 C 479.102,330.58 478.664,330.4 478.145,330.4 C 477.635,330.4 477.195,330.585 476.826,330.954 C 476.457,331.323 476.271,331.763 476.271,332.273"
           style="fill:#005184;fill-opacity:1;fill-rule:nonzero;stroke:none"
           id="path75" /><path
           d="M 490.807,321.729 C 490.688,322.658 490.332,323.368 489.74,323.855 C 489.148,324.344 488.338,324.588 487.309,324.588 C 486.334,324.588 485.551,324.351 484.959,323.877 C 484.367,323.402 483.953,322.686 483.716,321.729 L 490.807,321.729 z M 493.885,319.729 L 483.525,319.729 C 483.598,318.52 483.957,317.577 484.604,316.9 C 485.251,316.223 486.111,315.885 487.187,315.885 C 488.143,315.885 488.939,316.084 489.577,316.483 C 490.215,316.883 490.77,317.527 491.244,318.416 L 493.744,317.027 C 493.015,315.727 492.113,314.758 491.038,314.121 C 489.963,313.484 488.701,313.166 487.252,313.166 C 485.175,313.166 483.521,313.799 482.291,315.065 C 481.062,316.331 480.447,318.021 480.447,320.135 C 480.447,322.166 481.082,323.836 482.354,325.143 C 483.625,326.449 485.259,327.104 487.254,327.104 C 489.342,327.104 490.968,326.506 492.135,325.311 C 493.301,324.116 493.885,322.442 493.885,320.29 L 493.885,319.729 z"
           style="fill:#005184;fill-opacity:1;fill-rule:nonzero;stroke:none"
           id="path77" /><path
           d="M 494.648,334.885 L 497.617,334.885 L 497.617,313.697 L 494.648,313.697 L 494.648,334.885 z"
           style="fill:#005184;fill-opacity:1;fill-rule:nonzero;stroke:none"
           id="path79" /><path
           d="M 505.512,334.885 L 508.481,334.885 L 508.481,313.697 L 505.512,313.697 L 505.512,334.885 z"
           style="fill:#005184;fill-opacity:1;fill-rule:nonzero;stroke:none"
           id="path81" /><path
           d="M 510.39,326.666 L 513.359,326.666 L 513.359,313.697 L 510.39,313.697 L 510.39,326.666 z M 509.999,332.273 C 509.999,332.774 510.184,333.207 510.553,333.572 C 510.922,333.937 511.361,334.119 511.872,334.119 C 512.4,334.119 512.84,333.943 513.191,333.593 C 513.542,333.242 513.718,332.802 513.718,332.273 C 513.718,331.744 513.54,331.301 513.185,330.94 C 512.829,330.58 512.392,330.4 511.872,330.4 C 511.361,330.4 510.922,330.585 510.553,330.954 C 510.184,331.323 509.999,331.763 509.999,332.273"
           style="fill:#005184;fill-opacity:1;fill-rule:nonzero;stroke:none"
           id="path83" /><path
           d="M 518,320.217 C 518,318.896 518.339,317.832 519.018,317.021 C 519.696,316.212 520.573,315.807 521.648,315.807 C 522.769,315.807 523.637,316.18 524.252,316.926 C 524.866,317.673 525.174,318.732 525.174,320.107 C 525.174,321.473 524.853,322.54 524.211,323.309 C 523.568,324.078 522.687,324.463 521.566,324.463 C 520.445,324.463 519.571,324.09 518.943,323.344 C 518.314,322.597 518,321.555 518,320.217 M 518.096,334.885 L 518.096,324.531 C 518.441,325.352 518.996,325.986 519.757,326.434 C 520.519,326.88 521.428,327.104 522.485,327.104 C 524.208,327.104 525.605,326.468 526.676,325.197 C 527.748,323.927 528.283,322.258 528.283,320.189 C 528.283,318.012 527.757,316.297 526.704,315.045 C 525.65,313.792 524.208,313.166 522.376,313.166 C 521.464,313.166 520.655,313.349 519.948,313.713 C 519.242,314.078 518.625,314.634 518.096,315.382 L 518.096,313.697 L 515.127,313.697 L 515.127,334.885 L 518.096,334.885 z"
           style="fill:#005184;fill-opacity:1;fill-rule:nonzero;stroke:none"
           id="path85" /><path
           d="M 531.929,324.58 C 532.247,325.439 532.668,326.075 533.191,326.486 C 533.715,326.897 534.364,327.104 535.139,327.104 C 535.557,327.104 535.969,327.054 536.374,326.953 C 536.779,326.854 537.178,326.708 537.569,326.517 L 536.504,323.993 C 536.249,324.175 535.974,324.309 535.678,324.396 C 535.382,324.482 535.052,324.525 534.688,324.525 C 533.704,324.525 532.998,324.132 532.57,323.344 C 532.143,322.557 531.929,321.234 531.929,319.378 L 531.929,313.697 L 528.96,313.697 L 528.96,326.682 L 531.929,326.682 L 531.929,324.58 z"
           style="fill:#005184;fill-opacity:1;fill-rule:nonzero;stroke:none"
           id="path87" /><path
           d="M 546.211,321.729 C 546.093,322.658 545.737,323.368 545.146,323.855 C 544.553,324.344 543.742,324.588 542.714,324.588 C 541.739,324.588 540.956,324.351 540.364,323.877 C 539.771,323.402 539.357,322.686 539.121,321.729 L 546.211,321.729 z M 549.289,319.729 L 538.93,319.729 C 539.002,318.52 539.362,317.577 540.009,316.9 C 540.655,316.223 541.517,315.885 542.591,315.885 C 543.547,315.885 544.344,316.084 544.981,316.483 C 545.619,316.883 546.175,317.527 546.648,318.416 L 549.148,317.027 C 548.42,315.727 547.518,314.758 546.442,314.121 C 545.367,313.484 544.105,313.166 542.657,313.166 C 540.58,313.166 538.926,313.799 537.696,315.065 C 536.467,316.331 535.852,318.021 535.852,320.135 C 535.852,322.166 536.487,323.836 537.759,325.143 C 539.029,326.449 540.663,327.104 542.659,327.104 C 544.746,327.104 546.373,326.506 547.539,325.311 C 548.706,324.116 549.289,322.442 549.289,320.29 L 549.289,319.729 z"
           style="fill:#005184;fill-opacity:1;fill-rule:nonzero;stroke:none"
           id="path89" /><path
           d="M 599.755,418.38 C 597.306,434.753 582.985,448.752 560.5,459.288 L 560.5,441.254 C 578.378,431.111 589.286,418.511 590.42,404.424 C 591.287,393.634 586.322,383.095 576.72,373.373 C 593.469,387.401 602.069,402.908 599.755,418.38 M 246.878,385.951 C 245.351,404.952 261.891,423.172 290.061,437.52 L 298.591,455.826 C 247.577,436.552 215.996,408.428 220.187,380.407 C 226.004,341.521 298.751,316.009 389,318.529 L 389,323.509 C 310.506,326.067 249.641,351.597 246.878,385.951"
           style="fill:#005184;fill-opacity:1;fill-rule:nonzero;stroke:none"
           id="path91" /><path
           d="M 499.998,459.425 C 499.998,461.952 500.928,464.134 502.789,465.974 C 504.65,467.812 506.867,468.731 509.441,468.731 C 512.105,468.731 514.324,467.847 516.094,466.077 C 517.863,464.308 518.748,462.089 518.748,459.425 C 518.748,456.759 517.852,454.519 516.059,452.704 C 514.266,450.888 512.061,449.981 509.441,449.981 C 506.867,449.981 504.65,450.911 502.789,452.772 C 500.928,454.634 499.998,456.851 499.998,459.425"
           style="fill:#005184;fill-opacity:1;fill-rule:nonzero;stroke:none"
           id="path93" /><path
           d="M 535.583,481.731 L 550.583,481.731 L 550.583,374.606 L 535.583,374.606 L 535.583,481.731 z"
           style="fill:#000000;fill-opacity:1;fill-rule:nonzero;stroke:none"
           id="path95" /><path
           d="M 501.998,440.106 L 516.998,440.106 L 516.998,374.606 L 501.998,374.606 L 501.998,440.106 z"
           style="fill:#000000;fill-opacity:1;fill-rule:nonzero;stroke:none"
           id="path97" /><path
           d="M 467.785,429.755 C 469.395,434.089 471.523,437.294 474.168,439.368 C 476.813,441.442 480.092,442.481 484.002,442.481 C 486.117,442.481 488.199,442.218 490.246,441.694 C 492.293,441.171 494.307,440.409 496.285,439.409 L 490.902,426.782 C 489.613,427.704 488.223,428.386 486.727,428.823 C 485.23,429.261 483.564,429.481 481.725,429.481 C 476.756,429.481 473.189,427.485 471.027,423.495 C 468.865,419.505 467.785,412.804 467.785,403.394 L 467.785,374.606 L 452.785,374.606 L 452.785,440.231 L 467.785,440.231 L 467.785,429.755 z"
           style="fill:#000000;fill-opacity:1;fill-rule:nonzero;stroke:none"
           id="path99" /><path
           d="M 388.433,407.585 C 388.433,400.802 390.123,395.38 393.505,391.321 C 396.888,387.261 401.34,385.231 406.861,385.231 C 412.52,385.231 416.902,387.122 420.008,390.905 C 423.113,394.688 424.668,400.063 424.668,407.03 C 424.668,413.95 423.045,419.36 419.801,423.259 C 416.557,427.157 412.105,429.106 406.447,429.106 C 400.787,429.106 396.371,427.214 393.195,423.431 C 390.019,419.647 388.433,414.366 388.433,407.585 M 373.917,343.731 L 373.917,440.106 L 388.917,440.106 L 388.917,429.45 C 390.667,433.608 393.468,436.819 397.316,439.085 C 401.164,441.349 405.762,442.481 411.107,442.481 C 419.818,442.481 426.881,439.261 432.295,432.821 C 437.709,426.382 440.418,417.923 440.418,407.446 C 440.418,396.413 437.756,387.724 432.434,381.376 C 427.109,375.028 419.816,371.856 410.555,371.856 C 405.945,371.856 401.855,372.782 398.285,374.628 C 394.712,376.476 391.589,379.294 388.917,383.083 L 388.917,343.731 L 373.917,343.731 z"
           style="fill:#000000;fill-opacity:1;fill-rule:nonzero;stroke:none"
           id="path101" /><path
           d="M 306.333,414.356 L 334.556,414.356 L 324.181,437.458 C 323.581,438.933 322.958,440.626 322.313,442.54 C 321.667,444.454 321.021,446.587 320.376,448.938 C 319.821,446.724 319.233,444.661 318.61,442.747 C 317.987,440.833 317.353,439.071 316.708,437.458 L 306.333,414.356 z M 351.849,374.606 L 340.366,400.606 L 300.245,400.606 L 288.485,374.606 L 271.212,374.606 L 320.237,479.856 L 369.212,374.606 L 351.849,374.606 z"
           style="fill:#000000;fill-opacity:1;fill-rule:nonzero;stroke:none"
           id="path103" /></g></g></g></svg>
