<?xml version="1.0" encoding="utf-8"?>
<!-- Generator: Adobe Illustrator 22.1.0, SVG Export Plug-In . SVG Version: 6.00 Build 0)  -->
<svg version="1.1" id="Calque_1" xmlns="http://www.w3.org/2000/svg" xmlns:xlink="http://www.w3.org/1999/xlink" x="0px" y="0px"
	 viewBox="0 0 153.3 156.2" style="enable-background:new 0 0 153.3 156.2;" xml:space="preserve">
<style type="text/css">
	.st0{fill:#010202;}
</style>
<g>
	<g>
		<g>
			<path class="st0" d="M11.3,40C18,28.3,27.7,18.7,39.2,11.9l-27.9,0L11.3,40"/>
			<path class="st0" d="M11.2,116.7l0,28.2l27.9,0C27.6,138.1,17.9,128.4,11.2,116.7"/>
			<path class="st0" d="M142.7,116.6c-6.7,11.8-16.4,21.5-28,28.3l28,0L142.7,116.6z"/>
			<path class="st0" d="M115,12c11.6,6.8,21.2,16.6,27.9,28.3l0-28.3L115,12z"/>
			<path class="st0" d="M65.7,46.3l48.5,0l0,10.5l-17.7,0l-1.6,21.8c-0.3,3.8-0.4,7-0.4,9.8c0,6.6,0.8,10.7,2.4,12.2
				c1.7,1.5,3.7,2.1,6,2.1c4.9,0,7.7-2.8,8.7-8.6l2.8,0c-1.7,13.3-7.3,19.9-16.9,19.9c-4.4,0-8.1-1.3-10.9-3.9
				c-2.7-2.6-4-6.4-3.9-11.5c0-3.3,0.5-10.4,1.6-21.2l2-20.5l-16.1,0c-1.1,17.4-2.4,30.1-3.9,38.1s-3.1,13.2-4.9,15.5
				c-1.8,2.3-4.2,3.5-7.3,3.5c-2.3,0-4.3-0.6-6-1.9c-1.6-1.3-2.3-2.9-2.3-5.1c0-2,1.4-4.7,4.1-8.2c4-5.1,7-10.4,8.9-15.8
				c1.9-5.5,3.5-14.2,4.5-26.1l-5.2,0c-4.1,0-7.4,0.9-9.6,2.7c-2.2,1.7-4.2,4.1-6.2,7.4l-2.8,0c1.5-5.2,3.4-9.3,5.7-12.6
				s4.7-5.4,7.2-6.4C55,46.8,59.3,46.3,65.7,46.3 M77,16.3c-33.9,0-61.4,27.7-61.5,62c0,34.2,27.5,62.2,61.3,62.2
				c33.9,0,61.5-27.8,61.5-62.1S111,16.4,77,16.3"/>
		</g>
	</g>
</g>
</svg>
