<svg xmlns="http://www.w3.org/2000/svg" width="149.41mm" height="28.56mm" viewBox="0 0 423.54 80.95"><defs><style>.a,.c{fill:#000000;}.b,.e{fill:#f7a600;}.b,.c{fill-rule:evenodd;}.d{fill:#fff;stroke:#1d1d1b;stroke-width:2px;}</style></defs><title>foodwatch_logo</title><path class="a" d="M179.73,41.88V82.53a15.1,15.1,0,0,0,.56,5.18,2.62,2.62,0,0,0,4.32.09,12.6,12.6,0,0,0,.55-4.72V41.88H203.9V82.53a15.1,15.1,0,0,0,.56,5.18,2.76,2.76,0,0,0,4.46.09,12.26,12.26,0,0,0,.57-4.72V41.88h15.33V75.2a58.75,58.75,0,0,1-.75,11.08,15.71,15.71,0,0,1-3.25,6.57,14.82,14.82,0,0,1-6.4,4.51,25.55,25.55,0,0,1-8.93,1.43c-3.76,0-8.94-1.35-11.27-3.79a17.89,17.89,0,0,1-10.59,3.79,32.26,32.26,0,0,1-9.56-1.22A13.38,13.38,0,0,1,168,93.82a15,15,0,0,1-3.07-6.07A45.64,45.64,0,0,1,164,77.06V41.88h15.77Z" transform="translate(-0.58 -17.84)"></path><path class="b" d="M25.14,29.58v8.64q-5.26,0-6.23.51C18.29,39,18,40,18,41.46v1.77h7.16v8.85h-4v45.7h-17V52.08H.58V43.23h3.5a45.51,45.51,0,0,1,.38-7.37,6.25,6.25,0,0,1,1.85-3.28,9.68,9.68,0,0,1,4.22-2.24,33.87,33.87,0,0,1,8.38-.76Z" transform="translate(-0.58 -17.84)"></path><path class="b" d="M66.89,61.51V75.2a58.56,58.56,0,0,1-.76,11.08,15.71,15.71,0,0,1-3.25,6.57,14.82,14.82,0,0,1-6.4,4.51,25.55,25.55,0,0,1-8.93,1.43A32.26,32.26,0,0,1,38,97.57a13.38,13.38,0,0,1-6.11-3.75,15,15,0,0,1-3.07-6.07,45.64,45.64,0,0,1-.93-10.69V62.74q0-7.8,1.68-12.18a14,14,0,0,1,6.07-7Q40,40.88,46.84,40.87a25.16,25.16,0,0,1,9.81,1.73A15.64,15.64,0,0,1,63,47a15.4,15.4,0,0,1,3,5.65A34.16,34.16,0,0,1,66.89,61.51ZM50.18,57.3c0-2.86-.17-4.66-.52-5.39a2.19,2.19,0,0,0-2.23-1.14,2.29,2.29,0,0,0-2.27,1.14c-.38.73-.57,2.53-.57,5.39V82.53a14.76,14.76,0,0,0,.57,5.18,2.22,2.22,0,0,0,2.22,1.18,2.21,2.21,0,0,0,2.23-1.09,12.26,12.26,0,0,0,.57-4.72Z" transform="translate(-0.58 -17.84)"></path><path class="b" d="M111,61.51V75.2a57.72,57.72,0,0,1-.76,11.08A15.57,15.57,0,0,1,107,92.85a14.88,14.88,0,0,1-6.4,4.51,25.62,25.62,0,0,1-8.93,1.43,32.33,32.33,0,0,1-9.57-1.22A13.34,13.34,0,0,1,76,93.82a15,15,0,0,1-3.08-6.07A45.64,45.64,0,0,1,72,77.06V62.74q0-7.8,1.69-12.18a13.94,13.94,0,0,1,6.07-7,21.32,21.32,0,0,1,11.2-2.66,25.13,25.13,0,0,1,9.81,1.73,15.21,15.21,0,0,1,9.4,10.07A34.25,34.25,0,0,1,111,61.51ZM94.37,57.3c0-2.86-.18-4.66-.54-5.39a2.27,2.27,0,0,0-2.29-1.14,2.39,2.39,0,0,0-2.35,1.14c-.39.73-.58,2.53-.58,5.39V82.53c0,2.64.19,4.37.58,5.18a2.89,2.89,0,0,0,4.59.09c.39-.73.59-2.3.59-4.72Z" transform="translate(-0.58 -17.84)"></path><path class="b" d="M155.31,29.58v68.2h-17v-4a17.93,17.93,0,0,1-5.14,3.79,13.2,13.2,0,0,1-5.65,1.26,11.57,11.57,0,0,1-6.86-2.06,9.47,9.47,0,0,1-3.75-4.85,34.89,34.89,0,0,1-.8-8.93V56.79a35.7,35.7,0,0,1,.8-9.13,9.07,9.07,0,0,1,3.79-4.72,11.91,11.91,0,0,1,7-2.07A14.25,14.25,0,0,1,133.48,42a14.58,14.58,0,0,1,4.81,3.41V29.58ZM138.61,56a9.25,9.25,0,0,0-.62-4.13,2.38,2.38,0,0,0-2.32-1,2.55,2.55,0,0,0-2.32,1c-.38.62-.57,2-.57,4.21V83.33a11.45,11.45,0,0,0,.57,4.51,2.25,2.25,0,0,0,2.18,1A2.5,2.5,0,0,0,138,87.71c.41-.81.62-2.78.62-5.89Z" transform="translate(-0.58 -17.84)"></path><path class="c" d="M246.25,63.54h-16V59.79q0-6.49,1.47-10t6-6.23q4.5-2.7,11.71-2.7,8.63,0,13,3.08a11.83,11.83,0,0,1,5.27,7.5q.89,4.41.88,18.28V97.78H252.11v-5a10.35,10.35,0,0,1-9.9,6A14.57,14.57,0,0,1,234,96.31q-3.72-2.53-3.71-11V80.72q0-6.27,2-8.55t9.81-5.31q8.38-3.28,9-4.42a12,12,0,0,0,.59-4.63q0-4.38-.68-5.69a2.2,2.2,0,0,0-2.15-1.35c-1.15,0-1.86.38-2.15,1.14a22.43,22.43,0,0,0-.42,5.77Zm5.4,7.66q-4.1,3-4.76,5a20.22,20.22,0,0,0-.64,5.82q0,4.34.55,5.6a2.26,2.26,0,0,0,2.27,1.26c1.07,0,1.76-.32,2.07-1s.51-2.41.51-5.22Z" transform="translate(-0.58 -17.84)"></path><polygon class="c" points="291.88 16.59 291.88 25.39 296.47 25.39 296.47 34.23 291.88 34.23 291.88 79.94 274.82 79.94 274.82 34.23 271.15 34.23 271.15 25.39 274.82 25.39 274.82 16.59 291.88 16.59"></polygon><path class="c" d="M338.42,63H322.75V56.54a11.21,11.21,0,0,0-.62-4.55,2.8,2.8,0,0,0-4.5-.17c-.38.71-.57,2.28-.57,4.72V82.91a9.4,9.4,0,0,0,.85,4.51,2.75,2.75,0,0,0,2.52,1.47,2.55,2.55,0,0,0,2.6-1.56c.48-1,.72-3,.72-5.89V74.78h14.67a86.9,86.9,0,0,1-.5,10.07,16,16,0,0,1-2.83,6.87A15,15,0,0,1,328.9,97a22.6,22.6,0,0,1-9.48,1.77q-7.2,0-11.41-2.44a13.75,13.75,0,0,1-6-6.91Q300.29,85,300.3,76.8V60.92q0-7.11,1.43-10.74t6.11-6.44c3.11-1.91,6.33-2.87,11.35-2.87s8.25.94,11.4,2.83a13.86,13.86,0,0,1,6.27,7.11Q338.42,55.11,338.42,63Z" transform="translate(-0.58 -17.84)"></path><path class="c" d="M360.49,29.58V44.92a15.52,15.52,0,0,1,4.72-3,14.9,14.9,0,0,1,5.48-1,12.5,12.5,0,0,1,7.58,2.28,9,9,0,0,1,3.83,5.26q.72,3,.72,10.83V97.78H366.14V58.44c0-3.26-.2-5.35-.57-6.28a2.28,2.28,0,0,0-2.42-1.39,2.33,2.33,0,0,0-2.37,1.44,16.64,16.64,0,0,0-.62,5.68V97.78H343.47V29.58Z" transform="translate(-0.58 -17.84)"></path><path class="d" d="M423.12,37.22c0,10.15-7.92,18.37-17.69,18.37s-17.69-8.22-17.69-18.37,7.92-18.38,17.69-18.38S423.12,27.07,423.12,37.22Z" transform="translate(-0.58 -17.84)"></path><path class="a" d="M406.59,30.66a7.59,7.59,0,0,1,4.6-.65c4.45,1.17,5.7,4.37,5.91,8.86.25,5.5-3.75,10.89-9.23,10.4a6.53,6.53,0,0,1-2.44-.89,6.42,6.42,0,0,1-2.43.89c-5.66.51-8.73-5.55-8.62-11.22.1-4.59,2.28-8.93,6.85-9.35a5.59,5.59,0,0,1,3.89.89" transform="translate(-0.58 -17.84)"></path><path class="e" d="M405.77,33.12a5.93,5.93,0,0,1,4.52-1.8c3.27.33,5.31,3.42,5.25,8.12s-4.14,8.44-7.5,8.14a3.71,3.71,0,0,1-2.59-1.38,4,4,0,0,1-2.59,1.38c-3.37.3-6.43-3.31-6.83-8.06s2-8.85,5.36-9.16A4.94,4.94,0,0,1,405.77,33.12Z" transform="translate(-0.58 -17.84)"></path><path class="a" d="M402,32.78A4.52,4.52,0,0,0,399.36,35a.75.75,0,0,1-.94.32.79.79,0,0,1-.29-1.09,5,5,0,0,1,3.7-2.83.66.66,0,0,1,.76.51A.67.67,0,0,1,402,32.78Z" transform="translate(-0.58 -17.84)"></path><path class="a" d="M405.28,30a6.45,6.45,0,0,1,1.4-2.84c1.34-2.29,4.68-3.54,4.68-3.54l-.31,3.51A4.1,4.1,0,0,0,408,28.46a6.22,6.22,0,0,0-1.3,2.69" transform="translate(-0.58 -17.84)"></path></svg>
