
<svg width="45vw" height="59px" viewBox="0 0 391 68" version="1.1" xmlns="http://www.w3.org/2000/svg" xmlns:xlink="http://www.w3.org/1999/xlink">

  <g id="Artboard" stroke="none" stroke-width="1" fill="none" fill-rule="evenodd">
    <g id="Group-21" transform="translate(-147.000000, -1.000000)">

      <g id="Group-42" transform="translate(227.000000, 0.000000)">
        <polygon id="Fill-1" fill="#FF4D00" points="90.4570433 39.2547694 73.3862373 39.2310828 71.9907896 43.6481127 89.1017597 43.6723142"></polygon>
        <g id="Group-41" transform="translate(0.000000, 0.085993)">
          <path d="M78.2512007,23.2918254 C78.4473873,22.6723701 78.8407903,21.4391239 79.3073127,19.9772507 L75.8789396,19.9952731 L74.4834918,24.412303 L77.9123799,24.3942806 L78.2512007,23.2918254 Z" id="Fill-2" fill="#FF4D00">
          </path>
          <polygon id="Fill-4" fill="#FF4D00" points="43.3936366 68.4325522 60.5282933 68.4572687 61.9232261 64.0402388 44.7932037 64.0155224"></polygon>
          <path
            d="M211.782318,39.4740246 C212.914639,40.7798754 213.812154,42.134644 214.474348,43.5100097 C216.80181,43.0687187 218.289945,42.1907709 218.830616,40.492547 L220.229669,36.0750022 C219.420206,38.6202784 216.493885,39.3288157 211.782318,39.4740246"
            id="Fill-6" fill="#FF4D00"></path>
          <polygon id="Fill-8" fill="#FF4D00" points="193.314365 68.1293127 210.429454 68.1540291 211.784738 63.7369993 194.713932 63.7122828"></polygon>
          <path
            d="M198.908154,50.0445672 L200.275281,45.5894328 C200.461684,44.8597836 200.493094,43.8531045 199.642952,43.1033731 C199.204751,42.7166642 198.578601,42.4190373 197.975624,42.2846418 L196.570907,46.7011567 C197.173885,46.8355522 197.805184,47.134209 198.24287,47.520403 C199.093527,48.2706493 199.094042,49.3149179 198.908154,50.0445672"
            id="Fill-10" fill="#FF4D00"></path>
          <polygon id="Fill-12" fill="#FF4D00" points="173.983037 63.6815418 172.583469 68.0985716 172.617454 68.0985716 189.760865 68.123803 191.159917 63.7067731 174.016507 63.6815418"></polygon>
          <path
            d="M118.257967,64.0350896 L118.247154,64.0350896 L88.0200045,63.990806 L86.6539075,68.4083507 L116.880542,68.4521194 L116.89187,68.4521194 C121.488609,68.4557239 124.840773,66.4984925 125.850542,63.2410746 L127.217154,58.8240448 C126.207385,62.0814627 122.855221,64.038694 118.257967,64.0350896"
            id="Fill-14" fill="#FF4D00"></path>
          <polygon id="Fill-16" fill="#FF4D00" points="53.0771687 20.9161142 32.5862284 20.8862485 31.1825418 25.3037933 51.7131313 25.333659"></polygon>
          <path
            d="M32.177944,63.9254619 L32.1671306,63.9254619 L1.47500373,63.8806634 L0.000257462687,68.2976933 L30.6918694,68.3424918 L30.7026828,68.3424918 C35.2994216,68.3460963 38.6510709,66.3888649 39.664444,63.1242381 L40.7802873,59.6016336 C39.4687724,62.3235291 36.3359664,63.9290664 32.177944,63.9254619"
            id="Fill-18" fill="#FF4D00"></path>
          <polygon id="Fill-20" fill="#FF4D00" points="15.445856 20.8610172 5.33478134 20.8460843 3.85952015 25.2631142 14.0421694 25.278047"></polygon>
          <polygon id="Fill-22" fill="#FF4D00" points="166.080631 19.4812231 162.353087 19.4760739 160.84487 23.8931037 164.710415 23.898253"></polygon>
          <path d="M162.347422,31.6013306 C163.760378,32.1584799 165.156855,32.8757709 166.479699,33.7459948 L178.776631,33.7640172 L180.120587,29.3469873 L163.054415,29.321756 L162.347422,31.6013306 Z" id="Fill-24"
            fill="#FF4D00"></path>
          <path
            d="M164.555989,63.672994 C163.539526,63.9309716 162.421108,64.0689716 161.213093,64.0679418 L161.201765,64.0679418 L137.022929,64.0329269 L131.071937,64.0246881 L129.727466,68.4417179 L135.679489,68.4499567 L159.85884,68.4849716 L159.869138,68.4849716 C161.077153,68.4860015 162.196601,68.3480015 163.213063,68.0900239 C166.063175,67.3665537 168.083743,65.6755388 168.82884,63.2739269 L170.17228,58.8563821 C169.427183,61.258509 167.406616,62.9495239 164.555989,63.672994"
            id="Fill-26" fill="#FF4D00"></path>
          <path
            d="M146.790549,41.4530373 C147.415153,41.9926791 148.073743,42.4870075 148.74778,42.9535299 L153.367175,42.9602239 L154.532966,43.4643358 L153.839362,45.5981866 C154.88569,45.9787164 155.936138,46.2758284 156.971138,46.4622313 L158.376369,42.0585896 C154.869213,41.4406791 151.162265,39.6523433 148.133989,37.0360075 C144.234459,33.6663358 142.264869,29.7178881 142.81584,26.5160821 L141.657772,30.1442463 C140.597541,33.4680896 142.564556,37.8017015 146.790549,41.4530373"
            id="Fill-28" fill="#FF4D00"></path>
          <path
            d="M73.3860313,39.1449358 L90.4568373,39.1691373 L93.3522627,29.7351896 C94.0515313,27.5277045 97.3419045,17.2461896 97.3419045,17.2456746 L100.293972,8.02387612 L87.0902552,8.00070448 C87.0902552,8.00070448 75.9791955,7.98113731 71.1821507,7.97753284 C65.267203,7.97238358 61.9958821,9.63610746 60.8903373,13.1937269 L44.7891358,64.0148015 L61.9232776,64.0400328 L75.8782701,19.9953761 L79.3071582,19.9773537 C78.8406358,21.4392269 78.4472328,22.6729881 78.2510463,23.2919284 L73.3860313,39.1449358 Z"
            id="Fill-30" fill="#FFFFFF"></path>
          <path
            d="M212.413359,7.40884925 L205.659598,28.3029761 C205.083396,30.0578418 203.440784,31.2426851 201.593747,31.2272373 L201.552038,31.2272373 L209.073553,7.4037 L191.930143,7.37898358 L183.284031,34.5541701 C183.150665,34.8342896 183.029657,35.1226478 182.935426,35.4259388 L173.982934,63.6814388 L174.016919,63.6814388 L191.160329,63.7066701 L197.975881,42.2847448 C198.579374,42.4191403 199.205008,42.7167672 199.642695,43.1029612 C200.493351,43.8532075 200.461426,44.8598866 200.275538,45.5895358 L194.713829,63.7123343 L211.784635,63.7370507 L215.406105,51.9380507 L215.439575,51.8221925 C216.525038,47.7872373 215.193441,43.4072821 211.78206,39.4737672 C216.494143,39.3290731 219.419949,38.6200209 220.230441,36.0752597 L229.61959,7.4340806 L212.413359,7.40884925 Z"
            id="Fill-32" fill="#FFFFFF"></path>
          <path
            d="M126.332821,7.84911045 L112.225925,52.0369164 L108.821754,52.0322821 C109.243993,50.6749388 109.615254,49.4885507 109.847485,48.7547821 L122.896724,7.84396119 L105.747649,7.81924478 L94.7581119,42.2749612 C93.8523582,45.1333119 90.8632164,54.7969164 90.8632164,54.7969164 L88.0203134,63.990909 L118.247463,64.0351925 L118.257761,64.0351925 C122.855015,64.038797 126.207179,62.0815657 127.217463,58.8241478 L143.482925,7.87434179 L126.332821,7.84911045 Z"
            id="Fill-34" fill="#FFFFFF"></path>
          <g id="Group-38" transform="translate(1.029851, 0.000000)">
            <path
              d="M46.6406015,38.0881545 L29.5064597,38.0634381 L25.1146612,51.9272888 L21.6739299,51.9221396 C22.114706,50.580244 22.4998701,49.3979754 22.7398254,48.64155 L31.5563776,20.8860425 L52.0473179,20.9164231 L56.076094,7.87130373 L35.6999821,7.84143806 L38.0470119,0.453803731 L20.9061761,0.428572388 L18.5596612,7.81620672 L13.8980418,7.80951269 C10.4346537,7.80436343 7.8790791,9.27447537 7.12883284,11.7038933 L4.30498209,20.8463933 L14.4160567,20.8608112 L7.64839254,42.1653336 C6.74006418,45.032953 3.57224328,54.5183933 3.54031791,54.6141694 L0.445616418,63.8807664 L31.1372284,63.9255649 L31.1480418,63.9255649 C35.7447806,63.9291694 39.0969448,61.9719381 40.109803,58.7073112 L46.6406015,38.0881545 Z"
              id="Fill-36" fill="#FFFFFF"></path>
          </g>
          <path
            d="M168.871527,35.5525075 C165.842736,32.9351418 162.134758,31.146291 158.626572,30.5283806 L159.29237,28.4393284 L162.353601,19.4760224 L166.080631,19.4811716 L163.027124,29.3219104 L180.120587,29.3471418 L186.891855,7.52254478 L168.042497,7.49473881 L156.337213,7.47774627 L156.326915,7.47774627 C155.107572,7.47723134 153.978855,7.61780597 152.955184,7.88144776 C150.140087,8.60491791 148.137027,10.2779104 147.375967,12.6615 L144.236982,21.8544627 L143.001161,25.7267015 C141.94093,29.0510597 143.90846,33.3846716 148.134452,37.0360075 C151.162213,39.6523433 154.869676,41.4406791 158.376318,42.0585896 L155.180691,52.0697687 L151.785788,52.0651343 C152.208027,50.6938881 152.575684,49.5064701 152.797101,48.8056567 L154.532915,43.4643358 L153.367639,42.9602239 L137.515146,42.9370522 C136.481176,46.2449328 133.977094,54.4724104 133.864325,54.8452164 L131.07137,64.0242761 L137.022878,64.0330299 L161.201713,64.0675299 L161.213042,64.0675299 C162.421057,64.0685597 163.53999,63.9310746 164.555937,63.673097 C167.406564,62.9496269 169.426616,61.258097 170.172228,58.8564851 L174.002243,46.8612985 C175.06299,43.5379701 173.097004,39.2043582 168.871527,35.5525075"
            id="Fill-39" fill="#FFFFFF"></path>
        </g>
      </g>
    </g>
  </g>
</svg>
