<?xml version="1.0" encoding="utf-8"?>
<!-- Generator: Adobe Illustrator 23.1.1, SVG Export Plug-In . SVG Version: 6.00 Build 0)  -->
<svg version="1.1" id="Calque_1" xmlns="http://www.w3.org/2000/svg" xmlns:xlink="http://www.w3.org/1999/xlink" x="0px" y="0px"
	 viewBox="60 80 385 68" style="enable-background:new 0 0 510.2 226.8;" xml:space="preserve">
<style type="text/css">
	.st0{fill:#ED5A5A;}
	.st1{fill:#FFFFFF;}
	.st2{fill:#19B4BE;}
</style>
<path class="st0" d="M118,120.2V89.4c0-3.5,2.9-6.3,6.3-6.3s6.3,2.9,6.3,6.3v31.7c0,7.2,4.5,10.9,10,10.9c5.7,0,10.2-3.6,10.2-10.9
	V89.4c0-3.5,2.9-6.3,6.3-6.3c3.5,0,6.3,2.9,6.3,6.3v30.8c0,14.3-10,23.5-22.8,23.5C128,143.7,118,134.5,118,120.2z"/>
<path class="st0" d="M168.8,130.2c0-3.5,2.9-6.3,6.3-6.3c2.5,0,4,1.3,5.1,2.9c1.7,2.3,2.9,5.1,7.5,5.1c3.8,0,6.7-2.9,6.7-6.7
	c0-4-3.5-5.3-7.9-6.7l-4.3-1.4c-6.4-2.1-13.1-6.1-13.1-17.2c0-9.5,8.2-16.8,18.5-16.8c11.1,0,18,8.1,18,12.6c0,3.5-2.9,6.3-6.3,6.3
	c-2.4,0-3.7-1.2-4.9-2.6c-1.6-2-2.9-4.5-6.8-4.5c-3.3,0-5.9,2.6-5.9,5.8c0,3.5,3.2,5.1,6.7,6.2l3.6,1.2c7.1,2.3,15,5.7,15,17.9
	c0,10.1-8.5,17.7-19.4,17.7C176.7,143.7,168.8,135.5,168.8,130.2z"/>
<path class="st0" d="M229.8,137.6c0,3.5-2.9,6.3-6.3,6.3c-3.5,0-6.3-2.9-6.3-6.3V89.2c0-3.5,2.9-6.3,6.3-6.3c3.5,0,6.3,2.9,6.3,6.3
	V137.6z"/>
<path class="st2" d="M264.7,137.6c0,3.5-2.9,6.3-6.3,6.3c-3.5,0-6.3-2.9-6.3-6.3V89.2c0-3.5,2.9-6.3,6.3-6.3c3.5,0,6.3,2.9,6.3,6.3
	V137.6z"/>
<path class="st2" d="M274,113.4c0-16.9,13.4-30.3,30.4-30.3c17,0,30.4,13.4,30.4,30.3s-13.4,30.3-30.4,30.3
	C287.4,143.7,274,130.3,274,113.4z M321.8,113.4c0-10.1-7.7-18.1-17.4-18.1c-9.7,0-17.4,8-17.4,18.1c0,10.1,7.7,18.1,17.4,18.1
	C314.1,131.5,321.8,123.5,321.8,113.4z"/>
<path class="st2" d="M343.3,120.2V89.4c0-3.5,2.9-6.3,6.3-6.3c3.5,0,6.3,2.9,6.3,6.3v31.7c0,7.2,4.5,10.9,10,10.9
	c5.7,0,10.2-3.6,10.2-10.9V89.4c0-3.5,2.9-6.3,6.3-6.3c3.5,0,6.3,2.9,6.3,6.3v30.8c0,14.3-10,23.5-22.8,23.5
	C353.3,143.7,343.3,134.5,343.3,120.2z"/>
<path class="st0" d="M113.1,132.9l-13.1-15.7l0.4-0.2c4.6-1.9,9.3-7.1,9.3-15.1c0-10.2-7.9-18.5-19.4-18.5H70.6
	c-3.2,0-5.9,2.7-5.9,5.9s2.7,5.9,5.9,5.9H73h1.3h15.6c3.7,0,6.7,3,6.7,6.7s-3,6.7-6.7,6.7h-0.9c-3.1,0-5.6,2.5-5.6,5.7
	c0,2.2,1,3.8,1.9,4.9l18.2,21.6c1.3,1.5,3,2.3,4.9,2.3c3.5,0,6.2-2.7,6.2-6.2C114.5,135.6,114.2,134.3,113.1,132.9z"/>
<path class="st2" d="M435.5,132.9l-13.1-15.7l0.4-0.2c4.6-1.9,9.3-7.1,9.3-15.1c0-10.2-7.9-18.5-19.4-18.5h-11.1
	c-3.2,0-5.9,2.7-5.9,5.9s2.7,5.9,5.9,5.9h2.4h1.3h7c3.7,0,6.7,3,6.7,6.7s-3,6.7-6.7,6.7h-0.9c-3.1,0-5.6,2.5-5.6,5.7
	c0,2.2,1,3.8,1.9,4.9l18.2,21.6c1.3,1.5,3,2.3,4.9,2.3c3.5,0,6.2-2.7,6.2-6.2C437,135.6,436.6,134.3,435.5,132.9z"/>
<path class="st0" d="M238.8,107.1c-3.5,0-6.3,2.8-6.3,6.3c0,3.5,2.8,6.3,6.3,6.3h4.3c3.5,0,6.3-2.8,6.3-6.3c0-3.5-2.8-6.3-6.3-6.3
	H238.8z"/>
</svg>
